<svg xmlns="http://www.w3.org/2000/svg" xmlns:xlink="http://www.w3.org/1999/xlink" viewBox="0 0 619.95 647.64"><defs><style>.cls-1{fill:none;}.cls-2{fill:#fff;}.cls-3{clip-path:url(#clip-path);}</style><clipPath id="clip-path"><rect class="cls-1" x="1.95" width="615" height="615"/></clipPath></defs><title>FAVICON_POS_SVG</title><g id="Layer_2" data-name="Layer 2"><g id="Layer_3" data-name="Layer 3"><rect class="cls-2" x="1.95" width="618" height="618"/><g class="cls-3"><path d="M420.41,193c-3,0-4.87-.19-5.23-.22L0,186.5l0-6.26,415.26,6.26h0c.6.07,60.25,5.9,72-54.78,1.2-6,1-25.81.9-40.29,0-4.45-.07-8.66-.07-12.19,0-.46,0-1,0-1.51-.07-6.44-.19-18.43,6.34-30.57C508.56,21,546,9,605.78,11.28H617v6.26h-11.2c-73.32-2.85-99.67,16.94-108.87,34.05-5.52,10.26-5.42,20.12-5.36,26,0,.59,0,1.14,0,1.64,0,3.47,0,7.65.08,12.08.14,16.64.3,35.51-1.12,42.55-5.24,27.07-20,45.84-42.71,54.25A80.28,80.28,0,0,1,420.41,193Z"/><path d="M420.41,276.42a50.88,50.88,0,0,1-5.23-.23L0,269.94l0-6.26,415.26,6.26h0c.6.07,60.25,5.9,72-54.78,1.2-6,1-25.81.9-40.29,0-4.46-.07-8.66-.07-12.19,0-.46,0-1,0-1.51-.07-6.44-.19-18.43,6.34-30.57C508.56,104.47,546,92.4,605.78,94.72H617V101h-11.2c-73.32-2.85-99.67,17-108.87,34.05-5.52,10.27-5.42,20.13-5.36,26,0,.6,0,1.15,0,1.65,0,3.47,0,7.65.08,12.08.14,16.64.3,35.5-1.12,42.55-5.24,27.07-20,45.84-42.71,54.25A80.28,80.28,0,0,1,420.41,276.42Z"/><path d="M420.41,359.85c-3,0-4.87-.18-5.23-.22L0,353.37l0-6.25,415.26,6.26h0c.6.07,60.25,5.9,72-54.78,1.2-6,1-25.81.9-40.29,0-4.46-.07-8.66-.07-12.19,0-.46,0-1,0-1.52-.07-6.44-.19-18.42,6.34-30.57,14.06-26.13,51.51-38.19,111.28-35.87H617v6.25h-11.2c-73.32-2.85-99.67,17-108.87,34.05-5.52,10.26-5.42,20.13-5.36,26,0,.6,0,1.15,0,1.65,0,3.47,0,7.65.08,12.08.14,16.64.3,35.5-1.12,42.55-5.24,27.06-20,45.84-42.71,54.25A80.22,80.22,0,0,1,420.41,359.85Z"/><path d="M420.41,446.42c-3,0-4.87-.18-5.23-.22L0,439.94l0-6.26,415.26,6.26h0c.6.06,60.25,5.9,72-54.78,1.2-6,1-25.81.9-40.3,0-4.45-.07-8.66-.07-12.18,0-.46,0-1,0-1.52-.07-6.44-.19-18.42,6.34-30.57,14.06-26.13,51.51-38.2,111.28-35.88H617V271h-11.2c-73.32-2.85-99.67,16.94-108.87,34-5.52,10.26-5.42,20.13-5.36,26,0,.59,0,1.14,0,1.64,0,3.47,0,7.66.08,12.08.14,16.65.3,35.51-1.12,42.56-5.24,27.06-20,45.83-42.71,54.25A80.22,80.22,0,0,1,420.41,446.42Z"/><path d="M420.41,529.86c-3,0-4.87-.18-5.23-.22L0,523.38l0-6.26,415.26,6.26h0c.6.06,60.25,5.89,72-54.79,1.2-6,1-25.8.9-40.29,0-4.45-.07-8.66-.07-12.18,0-.46,0-1,0-1.52-.07-6.44-.19-18.43,6.34-30.57,14.06-26.13,51.51-38.2,111.28-35.88H617v6.26h-11.2c-73.32-2.85-99.67,16.94-108.87,34.05-5.52,10.26-5.42,20.12-5.36,26,0,.59,0,1.14,0,1.64,0,3.47,0,7.66.08,12.08.14,16.64.3,35.51-1.12,42.56-5.24,27.06-20,45.83-42.71,54.24A80.28,80.28,0,0,1,420.41,529.86Z"/><path d="M172.12,362.76c-12.51.52-29.21,11.47-29.21,11.47l-9.38-68.83c23.46-34.94,26.07-201.54-.16-201.86-39.48-.48-15.91,125-13,150.86,1.16,10.15,2.7,22.84,2.7,22.84C87.64,344,61.56,377.36,61.56,441c0,55.32,27.12,125.16,100.13,126.2l6.25,67.8s-7.3,5.21-11.71-7.33c-9.14,23,18,19.84,18,19.84l-7.3-81.35s51.11-21.9,58.35-80.89C236.43,394.13,197.15,361.72,172.12,362.76ZM132.48,135.39c28.16-2.08,9.91,119.42-3.65,133C125.7,244.38,103.29,137.56,132.48,135.39Zm25,402.59c-11.47,2.09-86.65-1-90.73-99.08-2.09-50.06,62.57-126.2,62.57-126.2,1.05,10.43,8.35,64.66,8.35,64.66s-20.86,24-18.78,75.1c3.73-8.39,13.56-44.85,23-49C141.87,403.44,157.39,537.32,157.51,538Zm5.22-1L146,400.31c0-2.09,70.2-48.58,77.18,40.67C227.92,501,162.73,536.94,162.73,536.94Z"/><path d="M265.57,315.27c-.11,11.36-.11,23.9-.11,24,0,2.51-.64,4.35-2,5.61-3.46,3.29-11.35,2.88-17.1,2.58-1.58-.08-3.07-.15-4.36-.15A30.36,30.36,0,0,1,231.87,346a9.37,9.37,0,0,1-4.93-3.85,18.08,18.08,0,0,1-2.41-7.7c-.37-3.27-.6-11.65-.6-17.55V234.43h7.68c4.17,0,13,.51,13.79.56,4.17.41,8.5,2.11,8.6,3.38l.16,1.95a10.51,10.51,0,0,1,.07,1.49c0,.61-.06,1.73-.06,4.62v3.13h14.5V187.19h-14.5v3.12c0,4,.14,5.78.22,6.83s.1,1.26-.36,4a20.63,20.63,0,0,1-3.65,9.17l-.07.11c-.76,1.19-2.12,1.64-4.28,2.24-.48.13-.95.26-1.4.4-1.82.57-9.18,1-13,1h-7.68c0-17,.09-33.85.25-50.21h0c.15-16.48.39-33.38.69-50.28H241.1c12.48,0,20.46.79,22,1.22,1.64,1,1.59,7.3,1.51,16.68,0,2.49-.05,5.26-.05,8.36V143h15l.33-51.34H177.16v17.25h9.76a1.42,1.42,0,0,1,1.09.32s.6.59,1.25,3a50.42,50.42,0,0,1,1.15,9c.24,4.1.37,9.58.37,16.29V316.07c0,13.29-.52,22.15-1.54,26.33-.62,2.57-1.56,4.29-2.32,4.29H175.08v17.24H280.62l.52-51.76H265.6Z"/><path d="M347.26,273.35H287.83v17.93h10.32c.37,0,1.21,1,1.9,3.7s1.54,9.37,1.54,25.29V491.1c0,15.93-.84,22.55-1.54,25.29s-1.53,3.71-1.9,3.71H285.74V538h64V520.1h-14.4c-.37,0-1.22-1-1.91-3.71-1-4-1.53-12.48-1.53-25.29V422.18a52.47,52.47,0,0,0,18.63,3.39,43.15,43.15,0,0,0,22.5-6.21,58.06,58.06,0,0,0,17.56-16.59A81.73,81.73,0,0,0,402,378.14l.36-1.23c2.38-8.28,3.27-11.38,3.71-21.94,1.31-31.57-4.31-53.38-17.19-66.66C379.09,278.19,365.08,273.12,347.26,273.35Zm25.2,81.28c0,10.56-.72,13.43-2.3,19.7l-.5,2c-1.83,7.36-4.2,13.2-7.06,17.36a23.75,23.75,0,0,1-9.29,8.41,26,26,0,0,1-11.12,2.5,28.8,28.8,0,0,1-6.17-.67,36.67,36.67,0,0,1-4.1-1.19c0-18.16.09-30.21.25-49.41.16-18.75.41-37.73.72-56.46a18.26,18.26,0,0,1,2.23-.54,32.48,32.48,0,0,1,5.56-.51c5.69,0,10.34,1.33,14.22,4.07a30.83,30.83,0,0,1,9.71,11.87,71.32,71.32,0,0,1,5.88,18.9A136.84,136.84,0,0,1,372.46,354.63Z"/></g></g></g></svg>