<svg xmlns="http://www.w3.org/2000/svg" viewBox="0 0 1845.52 729.35"><title>Banda_EnnioPorrino_SVG_POS_SVG</title><g id="Layer_2" data-name="Layer 2"><g id="Layer_3" data-name="Layer 3"><path d="M750.27,293.42c-5.31,0-8.69-.17-9.34-.21L0,287.21l.05-6,741.08,6h.07c1.08.06,107.52,5.65,128.5-52.53,2.15-5.72,1.85-24.74,1.62-38.63-.06-4.27-.13-8.3-.13-11.68,0-.44,0-.93,0-1.46-.12-6.17-.34-17.66,11.32-29.31,25.1-25.05,91.92-36.62,198.6-34.4h764.43v6H1081c-130.84-2.73-177.86,16.25-194.29,32.65-9.85,9.84-9.67,19.3-9.56,24.95,0,.57,0,1.09,0,1.57,0,3.33.07,7.34.13,11.59.26,15.95.55,34-2,40.8-9.35,25.94-35.72,43.94-76.22,52A257.4,257.4,0,0,1,750.27,293.42Z"/><path d="M750.27,373.42c-5.31,0-8.69-.17-9.34-.21L0,367.21l.05-6,741.08,6h.07c1.08.06,107.52,5.65,128.5-52.53,2.15-5.72,1.85-24.74,1.62-38.63-.06-4.27-.13-8.3-.13-11.68,0-.44,0-.93,0-1.46-.12-6.17-.34-17.66,11.32-29.31,25.1-25.05,91.92-36.62,198.6-34.4h764.43v6H1081c-130.84-2.73-177.86,16.25-194.29,32.65-9.85,9.84-9.67,19.3-9.56,24.95,0,.57,0,1.09,0,1.57,0,3.33.07,7.34.13,11.59.26,15.95.55,34-2,40.8-9.35,25.94-35.72,43.94-76.22,52A257.4,257.4,0,0,1,750.27,373.42Z"/><path d="M750.27,453.42c-5.31,0-8.69-.17-9.34-.21L0,447.21l.05-6,741.08,6h.07c1.08.06,107.52,5.65,128.5-52.53,2.15-5.72,1.85-24.74,1.62-38.63-.06-4.27-.13-8.3-.13-11.68,0-.44,0-.93,0-1.46-.12-6.17-.34-17.66,11.32-29.31,25.1-25.05,91.92-36.62,198.6-34.4h764.43v6H1081c-130.84-2.73-177.86,16.25-194.29,32.65-9.85,9.84-9.67,19.3-9.56,24.95,0,.57,0,1.09,0,1.57,0,3.33.07,7.34.13,11.59.26,15.95.55,34-2,40.8-9.35,25.94-35.72,43.94-76.22,52A257.4,257.4,0,0,1,750.27,453.42Z"/><path d="M750.27,536.42c-5.31,0-8.69-.17-9.34-.21L0,530.21l.05-6,741.08,6h.07c1.08.06,107.52,5.65,128.5-52.53,2.15-5.72,1.85-24.74,1.62-38.63-.06-4.27-.13-8.3-.13-11.68,0-.44,0-.93,0-1.46-.12-6.17-.34-17.66,11.32-29.31,25.1-25.05,91.92-36.62,198.6-34.4h764.43v6H1081c-130.84-2.73-177.86,16.25-194.29,32.65-9.85,9.84-9.67,19.3-9.56,24.95,0,.57,0,1.09,0,1.57,0,3.33.07,7.34.13,11.59.26,15.95.55,34-2,40.8-9.35,25.94-35.72,43.94-76.22,52A257.4,257.4,0,0,1,750.27,536.42Z"/><path d="M750.27,616.42c-5.31,0-8.69-.17-9.34-.21L0,610.21l.05-6,741.08,6h.07c1.08.06,107.52,5.65,128.5-52.53,2.15-5.72,1.85-24.74,1.62-38.63-.06-4.27-.13-8.3-.13-11.68,0-.44,0-.93,0-1.46-.12-6.17-.34-17.66,11.32-29.31,25.1-25.05,91.92-36.62,198.6-34.4h764.43v6H1081c-130.84-2.73-177.86,16.25-194.29,32.65-9.85,9.84-9.67,19.3-9.56,24.95,0,.57,0,1.09,0,1.57,0,3.33.07,7.34.13,11.59.26,15.95.55,34-2,40.8-9.35,25.94-35.72,43.94-76.22,52A257.4,257.4,0,0,1,750.27,616.42Z"/><path d="M165,456.21c-12,.5-28,11-28,11l-9-66c22.5-33.5,25-193.23-.14-193.54-37.86-.46-15.26,119.82-12.44,144.65,1.11,9.73,2.58,21.89,2.58,21.89-34,64-59,96-59,157,0,53,26,120,96,121l6,65s-7,5-11.23-7c-8.77,22,17.23,19,17.23,19l-7-78s49-21,55.95-77.56C226.69,486.29,189,455.21,165,456.21Zm-38-218c27-2,9.5,114.5-3.5,127.5C120.52,342.71,99,240.29,127,238.21Zm24,386c-11,2-83.08-1-87-95-2-48,60-121,60-121,1,10,8,62,8,62s-20,23-18,72c3.58-8,13-43,22-47C136,495.21,150.9,623.58,151,624.21Zm5-1-16-131c0-2,67.31-46.58,74,39C218.52,588.71,156,623.21,156,623.21Z"/><path d="M290.89,238.11H276l-6-22H242.77l-5.63,22H222.52L249,141H263.6ZM265.6,199.69l-9.4-36-9.23,36Z"/><path d="M293.44,218.11l13.08-2.85q1.71,11.06,10.54,11.06c3.13,0,5.48-.71,7-2.12a7.1,7.1,0,0,0,2.33-5.5,5.86,5.86,0,0,0-1-3.65,9,9,0,0,0-4.27-2.31q-16.06-5-20.43-9.52-5.43-5.64-5.44-15.47T300.58,172q5.32-5.91,15.46-5.91,9.69,0,14.73,4.4t7.08,14.21L325.56,188q-1.65-8.49-9.29-8.48-4.81,0-6.86,1.62a5.15,5.15,0,0,0-2,4.22,4.79,4.79,0,0,0,1.87,3.85q1.88,1.59,11.61,4.81,10.92,3.63,14.84,8.73t3.86,13.58q0,10.22-6,16.84t-16.51,6.63q-9.57,0-15.63-5.53T293.44,218.11Z"/><path d="M346.34,218.11l13.09-2.85q1.69,11.06,10.53,11.06,4.71,0,7-2.12a7.1,7.1,0,0,0,2.32-5.5,5.86,5.86,0,0,0-1-3.65,9,9,0,0,0-4.26-2.31q-16.08-5-20.44-9.52-5.43-5.64-5.43-15.47T353.48,172q5.32-5.91,15.46-5.91,9.69,0,14.73,4.4t7.08,14.21L378.46,188q-1.65-8.49-9.29-8.48-4.82,0-6.85,1.62a5.15,5.15,0,0,0-2,4.22,4.76,4.76,0,0,0,1.87,3.85q1.86,1.59,11.6,4.81,10.94,3.63,14.84,8.73t3.86,13.58q0,10.22-6,16.84T370,239.77q-9.57,0-15.63-5.53T346.34,218.11Z"/><path d="M400.78,201.94a48.86,48.86,0,0,1,3.51-18.84q3.51-8.5,9.18-12.75a20.69,20.69,0,0,1,12.74-4.24q11.9,0,18.69,10.91t6.8,25.52a52,52,0,0,1-3.54,19.64q-3.54,8.76-9.29,13.18a20.26,20.26,0,0,1-12.6,4.41q-11,0-18.24-9.82T400.78,201.94Zm13.37,1q0,10.69,3.57,16.18t8.63,5.48q4.93,0,8.46-5.52t3.52-16.28q0-10.49-3.58-16t-8.57-5.51q-4.94,0-8.49,5.51T414.15,202.94Z"/><path d="M505,188.5l-12.86,3.31q-1.42-11.07-8.94-11.06-4.84,0-7.81,4.78t-3,16.15q0,12.56,2.95,17.74t7.9,5.18a7.48,7.48,0,0,0,6.08-2.95q2.38-2.94,3.4-10.43l12.86,3.11q-4,25.44-22.82,25.44-12.07,0-17.9-10.75t-5.84-25.88q0-18.12,6.61-27.58T483,166.11q8.67,0,14.15,5.36T505,188.5Z"/><path d="M514.86,158.22V141h13.08v17.22Zm0,79.89V167.76h13.08v70.35Z"/><path d="M551.05,189.16l-11.84-3q2.16-10.67,7.11-15.33t14.25-4.67q8.26,0,12.63,2.72a15.18,15.18,0,0,1,6.23,7.39q1.86,4.67,1.87,17L581.18,215a107,107,0,0,0,.63,13.63,52.44,52.44,0,0,0,2.32,9.51H571.21l-1.69-7.68a25.63,25.63,0,0,1-7.17,7,15.33,15.33,0,0,1-8.13,2.35,14.49,14.49,0,0,1-11.78-5.67q-4.59-5.67-4.59-15.09a26.85,26.85,0,0,1,1.87-10.42,17.32,17.32,0,0,1,5.27-7.1q3.39-2.66,10.87-4.71,9.07-2.44,12.64-4.57,0-5.86-.71-7.7a6,6,0,0,0-2.61-3,10.21,10.21,0,0,0-5.35-1.17,7.85,7.85,0,0,0-5.52,1.85Q552.3,184.06,551.05,189.16Zm17.45,15.17a58.42,58.42,0,0,1-7.76,2.79q-6.06,1.86-7.93,4.12a8.83,8.83,0,0,0-1.87,5.85A11.09,11.09,0,0,0,553,223.9a6.27,6.27,0,0,0,5.19,2.75,8.65,8.65,0,0,0,5.49-2.22,11.75,11.75,0,0,0,3.77-5.28q1-3.06,1-11.1Z"/><path d="M588.94,238.11V223.6l18.5-30.29q4.57-7.38,6.7-10.51-2.26.19-6,.26l-17.38.14V167.76h40.78v13.18l-18.87,31-6.62,10.27c3.62-.3,5.87-.46,6.74-.46H633v16.36Z"/><path d="M641.79,158.22V141h13.09v17.22Zm0,79.89V167.76h13.09v70.35Z"/><path d="M665.18,201.94a48.68,48.68,0,0,1,3.52-18.84q3.51-8.5,9.17-12.75a20.74,20.74,0,0,1,12.75-4.24q11.89,0,18.69,10.91t6.8,25.52a52,52,0,0,1-3.54,19.64q-3.54,8.76-9.29,13.18a20.28,20.28,0,0,1-12.61,4.41q-11,0-18.24-9.82T665.18,201.94Zm13.37,1q0,10.69,3.58,16.18t8.63,5.48q4.93,0,8.46-5.52t3.52-16.28q0-10.49-3.58-16t-8.57-5.51q-4.94,0-8.49,5.51T678.55,202.94Z"/><path d="M771.22,238.11H758.14V202.17q0-10.81-.74-14.39a10.24,10.24,0,0,0-2.75-5.51,6.43,6.43,0,0,0-4.56-1.92,8.52,8.52,0,0,0-6,2.49,13.46,13.46,0,0,0-3.73,6.86q-1.08,4.38-1.08,16.51v31.9H726.25V167.76h12.12V178a26.49,26.49,0,0,1,7.28-8.94,14.74,14.74,0,0,1,9-3,14,14,0,0,1,9.66,3.48,17.93,17.93,0,0,1,5.44,8.95q1.5,5.47,1.5,15.81Z"/><path d="M813.13,215.79l13,3.11q-2.61,10.6-8.11,15.73a18.88,18.88,0,0,1-13.39,5.14q-11,0-16.9-8.56-7-10-7-27.87,0-17.65,7.08-28.27,6-9,15.52-9,10.59,0,16.6,9.15,6.9,10.49,6.91,30.92l-.06,2.12H794.05q.11,8.38,3.2,13t7.48,4.59Q811,225.86,813.13,215.79Zm.68-18.88q-.16-8.25-3-12.4c-1.89-2.78-4.13-4.16-6.74-4.16s-5.08,1.44-7,4.32-2.86,7-2.83,12.24Z"/><path d="M898.51,0H926.1Q937.4,0,942,2.38c3,1.59,5.64,4.4,7.74,8.42a29,29,0,0,1,3.15,13.64,29.11,29.11,0,0,1-2.7,12.69,19.37,19.37,0,0,1-7,8.38,19.3,19.3,0,0,1,9.59,8.61A29.69,29.69,0,0,1,956.21,69q0,10.61-4.42,17.92t-10.42,9Q937.19,97.1,922,97.11H898.51Zm13.87,16.16V38.62h9.16a88.42,88.42,0,0,0,10.2-.33,8.45,8.45,0,0,0,5.56-3.48,13,13,0,0,0,2-7.65,13.3,13.3,0,0,0-1.63-7,6.93,6.93,0,0,0-3.95-3.34q-2.33-.67-13.32-.67Zm0,38.62v25.9h12.91c5.67,0,9.3-.34,10.91-1a8.56,8.56,0,0,0,4-4A15.86,15.86,0,0,0,941.88,68a15.65,15.65,0,0,0-1.75-7.83,9.3,9.3,0,0,0-4.65-4.23q-2.9-1.15-11.85-1.16Z"/><path d="M977.75,48.16l-12-3Q968,34.45,973,29.78t14.41-4.67q8.37,0,12.78,2.72a15.17,15.17,0,0,1,6.3,7.39q1.89,4.66,1.89,17L1008.23,74a107,107,0,0,0,.63,13.63,51.83,51.83,0,0,0,2.35,9.51H998.14l-1.71-7.68a25.83,25.83,0,0,1-7.25,7A15.64,15.64,0,0,1,981,98.77,14.71,14.71,0,0,1,969,93.1Q964.41,87.43,964.4,78a26.48,26.48,0,0,1,1.89-10.42,17.36,17.36,0,0,1,5.33-7.1q3.43-2.66,11-4.71,9.17-2.45,12.77-4.57c0-3.91-.23-6.48-.71-7.7a6.07,6.07,0,0,0-2.64-3,10.42,10.42,0,0,0-5.41-1.17A8,8,0,0,0,981,41.2Q979,43.06,977.75,48.16Zm17.64,15.17a58.82,58.82,0,0,1-7.84,2.79q-6.13,1.86-8,4.12a8.79,8.79,0,0,0-1.89,5.85,10.92,10.92,0,0,0,2.1,6.81A6.35,6.35,0,0,0,985,85.65a8.8,8.8,0,0,0,5.55-2.22,11.62,11.62,0,0,0,3.81-5.28q1.06-3.06,1.06-11.1Z"/><path d="M1066.78,97.11h-13.23V61.17q0-10.81-.75-14.39a10.2,10.2,0,0,0-2.78-5.51,6.52,6.52,0,0,0-4.61-1.92,8.68,8.68,0,0,0-6,2.49,13.51,13.51,0,0,0-3.78,6.86q-1.08,4.38-1.08,16.51v31.9h-13.24V26.76h12.26V37a26.62,26.62,0,0,1,7.36-8.94,15.06,15.06,0,0,1,9.08-3,14.31,14.31,0,0,1,9.77,3.48,17.89,17.89,0,0,1,5.5,9q1.52,5.48,1.52,15.81Z"/><path d="M1125.91,97.11h-12.26V86.78a24.74,24.74,0,0,1-7.17,9,14.21,14.21,0,0,1-8.48,3q-8.36,0-14.58-9.66t-6.21-27.57q0-18,6.06-27.24t14.93-9.19a13.66,13.66,0,0,1,7.81,2.45,23.61,23.61,0,0,1,6.66,7.35V0h13.24Zm-35.18-36.7q0,9.57,1.4,14.25a15.12,15.12,0,0,0,4,7,8.46,8.46,0,0,0,5.86,2.36q4.34,0,7.54-5.44t3.2-16.42q0-12.15-3.11-17.5t-7.92-5.35q-4.58,0-7.77,5.25T1090.73,60.41Z"/><path d="M1148.82,48.16l-12-3Q1139,34.45,1144,29.78t14.41-4.67q8.35,0,12.77,2.72a15.14,15.14,0,0,1,6.31,7.39q1.89,4.66,1.89,17L1179.3,74a107,107,0,0,0,.63,13.63,52.65,52.65,0,0,0,2.35,9.51h-13.06l-1.72-7.68a25.7,25.7,0,0,1-7.25,7,15.64,15.64,0,0,1-8.22,2.35,14.72,14.72,0,0,1-11.92-5.67q-4.63-5.67-4.64-15.09a26.48,26.48,0,0,1,1.89-10.42,17.44,17.44,0,0,1,5.33-7.1q3.43-2.66,11-4.71,9.16-2.45,12.78-4.57,0-5.87-.72-7.7a6,6,0,0,0-2.63-3,10.46,10.46,0,0,0-5.42-1.17,8,8,0,0,0-5.58,1.85Q1150.08,43.06,1148.82,48.16Zm17.65,15.17a59.08,59.08,0,0,1-7.85,2.79q-6.13,1.86-8,4.12a8.79,8.79,0,0,0-1.89,5.85,10.91,10.91,0,0,0,2.09,6.81,6.35,6.35,0,0,0,5.24,2.75,8.83,8.83,0,0,0,5.56-2.22,11.77,11.77,0,0,0,3.81-5.28q1.06-3.06,1.06-11.1Z"/><path d="M1230.85,97.11V0h20.8l12.52,66.31L1276.59,0h20.89V97.11h-12.94V20.6l-13.73,76.51h-13.38L1243.8,20.6V97.11Z"/><path d="M1343.83,97.11V86.59a23.06,23.06,0,0,1-7.2,9,15.7,15.7,0,0,1-9.32,3.23,14.14,14.14,0,0,1-8.81-3,17.72,17.72,0,0,1-5.81-8.49q-1.9-5.51-1.91-16V26.76H1324V59.09q0,13.84.6,17.59a10.24,10.24,0,0,0,2.66,5.79,6.76,6.76,0,0,0,5,2.06,8.68,8.68,0,0,0,6.11-2.69A13,13,0,0,0,1342,75q.88-4.2.89-18.51V26.76h13.23V97.11Z"/><path d="M1365.26,77.11l13.24-2.85q1.71,11.05,10.65,11.06,4.75,0,7.11-2.12a7.09,7.09,0,0,0,2.35-5.5,5.8,5.8,0,0,0-1-3.65,9.05,9.05,0,0,0-4.31-2.31q-16.26-5-20.67-9.52-5.49-5.64-5.5-15.47T1372.48,31q5.38-5.91,15.64-5.91,9.8,0,14.9,4.4t7.16,14.21L1397.75,47q-1.66-8.49-9.4-8.48-4.87,0-6.93,1.62a5.12,5.12,0,0,0-2.06,4.22,4.72,4.72,0,0,0,1.89,3.85c1.25,1.06,5.17,2.67,11.73,4.81q11.05,3.63,15,8.73t3.91,13.58q0,10.22-6.05,16.84t-16.7,6.63q-9.68,0-15.81-5.53T1365.26,77.11Z"/><path d="M1423.41,17.22V0h13.24V17.22Zm0,79.89V26.76h13.24V97.11Z"/><path d="M1493.71,47.5l-13,3.31q-1.44-11.07-9-11.06-4.9,0-7.9,4.78t-3,16.15q0,12.56,3,17.74t8,5.18a7.59,7.59,0,0,0,6.15-2.95q2.41-2.94,3.45-10.43l13,3.11q-4,25.44-23.09,25.44-12.2,0-18.1-10.75t-5.9-25.88q0-18.12,6.68-27.58t17.52-9.45q8.77,0,14.32,5.36T1493.71,47.5Z"/><path d="M1513.53,48.16l-12-3q2.18-10.66,7.19-15.33t14.41-4.67q8.37,0,12.77,2.72a15.14,15.14,0,0,1,6.31,7.39q1.89,4.66,1.89,17L1544,74a107,107,0,0,0,.63,13.63,52.65,52.65,0,0,0,2.35,9.51h-13.06l-1.72-7.68a25.7,25.7,0,0,1-7.25,7,15.61,15.61,0,0,1-8.22,2.35,14.69,14.69,0,0,1-11.91-5.67q-4.65-5.67-4.65-15.09a26.3,26.3,0,0,1,1.9-10.42,17.34,17.34,0,0,1,5.32-7.1q3.45-2.66,11-4.71,9.16-2.45,12.78-4.57,0-5.87-.72-7.7a6,6,0,0,0-2.63-3,10.46,10.46,0,0,0-5.42-1.17,8,8,0,0,0-5.58,1.85Q1514.79,43.06,1513.53,48.16Zm17.65,15.17a59.08,59.08,0,0,1-7.85,2.79q-6.13,1.86-8,4.12a8.79,8.79,0,0,0-1.89,5.85,11,11,0,0,0,2.09,6.81,6.35,6.35,0,0,0,5.24,2.75,8.83,8.83,0,0,0,5.56-2.22,11.77,11.77,0,0,0,3.81-5.28q1.07-3.06,1.06-11.1Z"/><path d="M1557.19,97.11V0h13.24V97.11Z"/><path d="M1612.94,74.79l13.12,3.11q-2.64,10.6-8.21,15.73a19.2,19.2,0,0,1-13.53,5.14q-11.08,0-17.1-8.56-7.11-10-7.11-27.87,0-17.65,7.16-28.27,6.07-9,15.7-9,10.71,0,16.78,9.15,7,10.49,7,30.92l0,2.12h-33.06c.07,5.59,1.16,9.91,3.24,13s4.61,4.59,7.56,4.59Q1610.81,84.86,1612.94,74.79Zm.68-18.88q-.16-8.25-3-12.4c-1.91-2.78-4.19-4.16-6.82-4.16q-4.18,0-7,4.32t-2.86,12.24Z"/><path d="M359.62,488.68c-.09,10.89-.1,22.91-.1,23,0,2.41-.61,4.17-1.89,5.38-3.32,3.15-10.88,2.76-16.4,2.48-1.51-.08-2.93-.16-4.18-.16a28.84,28.84,0,0,1-9.73-1.32,9,9,0,0,1-4.73-3.68,17.46,17.46,0,0,1-2.31-7.39c-.36-3.13-.58-11.17-.58-16.82v-79h7.37c4,0,12.46.49,13.22.53,4,.4,8.15,2,8.24,3.25l.16,1.87a7.92,7.92,0,0,1,.06,1.42c0,.59-.05,1.67-.05,4.44v3h13.9V365.87H348.7v3c0,3.85.13,5.54.21,6.55a11.19,11.19,0,0,1-.34,3.79,20,20,0,0,1-3.51,8.79l-.07.1c-.72,1.14-2,1.57-4.1,2.15-.46.12-.91.25-1.34.38-1.74.55-8.8,1-12.48,1H319.7c0-16.28.09-32.46.24-48.15h0c.15-15.8.37-32,.67-48.2h15.56c12,0,19.61.76,21.1,1.17,1.58,1,1.53,7,1.45,16,0,2.39,0,5.05,0,8v3H373l.32-49.22h-98.5v16.54h9.35a1.37,1.37,0,0,1,1.06.31s.57.56,1.19,2.9a47.44,47.44,0,0,1,1.1,8.64c.24,3.93.36,9.19.36,15.63V489.44c0,12.74-.5,21.24-1.47,25.25-.6,2.46-1.5,4.11-2.24,4.11H272.86v16.54h101.2l.49-49.63h-14.9Z"/><path d="M641.06,367h6.69c1.18,0,2.4.31,3.35,2.56.74,1.76,1.61,6.08,1.61,16.71V502.81c0,7.92-.44,9-1.43,11.3l-.18.44a4.67,4.67,0,0,1-4.35,2.56h-6.69v18.23H696V517.11h-7.27c-1.18,0-2.4-.31-3.34-2.56l-.18-.43c-1-2.32-1.44-3.38-1.44-11.31V489.08c0-5.14,0-10.92.14-17.18.1-6.51.15-13.28.15-20.12,0-7.07.09-14.15.28-21,.19-7.1.28-13.62.28-19.38,0-6.23,0-11.33.15-15.61.09-4.53.14-7.64.14-9.46.22-10.76,1-15.19,1.56-17S688,367,689.26,367h7.26V353.71H641.06Z"/><path d="M800.67,372.67c-4.62-7.83-9.95-13.76-15.83-17.64h0a39.22,39.22,0,0,0-20.17-5.85c-7.08,0-17.87,2.12-25,8.12-6.36,5.36-11.77,12.58-16.08,21.45a126,126,0,0,0-9.91,30.51,181.39,181.39,0,0,0-3.42,35.37c0,15.25,1.39,28.79,4.14,40.25s6.45,21.18,11,28.82,10,13.5,16.1,17.37c6.36,4,16,5.85,22.24,5.85A33.13,33.13,0,0,0,783,530.54c8.33-5.87,14.19-11.9,17.91-18.43,4.55-8,8.22-18,10.91-29.73a182.44,182.44,0,0,0,4-40.38c0-15.23-1.39-28.78-4.14-40.26S805.28,380.48,800.67,372.67ZM746.1,389.51c1.74-6.78,4-12.12,6.69-15.87s5.85-5.55,9.48-5.55c3.46,0,6.56,1.82,9.22,5.43s5,9,6.88,16a160.85,160.85,0,0,1,4.3,25.49c1,10,1.48,21.34,1.48,33.82a337.24,337.24,0,0,1-1.67,36.79c-1.11,9.77-2.64,17.72-4.55,23.62s-4.12,10.07-6.6,12.49-5.06,3.62-7.78,3.62c-3,0-5.95-1.71-8.65-5.07s-5.19-8.59-7.26-15.38a147.82,147.82,0,0,1-4.94-25.23,290.66,290.66,0,0,1-1.8-34.31c0-11.34.43-21.89,1.28-31.34A156.92,156.92,0,0,1,746.1,389.51Z"/><path d="M986.62,152.21h-57v17.2h9.9c.36,0,1.17,1,1.83,3.55s1.47,9,1.47,24.25V361c0,15.28-.8,21.62-1.47,24.25s-1.47,3.56-1.83,3.56h-11.9V406H989V388.8H975.21c-.36,0-1.17-1-1.83-3.56-1-3.81-1.47-12-1.47-24.25V294.92a50.46,50.46,0,0,0,17.86,3.25,41.41,41.41,0,0,0,21.58-6,55.7,55.7,0,0,0,16.83-15.91,78.14,78.14,0,0,0,11-23.62l.34-1.18c2.28-7.93,3.13-10.9,3.55-21,1.26-30.27-4.13-51.18-16.47-63.91C1017.14,156.86,1003.7,152,986.62,152.21Zm24.16,77.94c0,10.12-.69,12.87-2.2,18.88l-.48,1.94c-1.76,7-4,12.65-6.77,16.64a22.79,22.79,0,0,1-8.91,8.06,25,25,0,0,1-10.66,2.39,27.11,27.11,0,0,1-5.92-.64,31.85,31.85,0,0,1-3.93-1.14c0-17.41.09-29,.25-47.37.15-18,.38-36.18.68-54.14a19.32,19.32,0,0,1,2.14-.51,30.72,30.72,0,0,1,5.33-.49c5.45,0,9.91,1.28,13.63,3.9a29.44,29.44,0,0,1,9.31,11.38,69,69,0,0,1,5.65,18.12A131.88,131.88,0,0,1,1010.78,230.15Z"/><path d="M1272.08,365.21c-.39-1.25-.76-2.44-1.12-3.44-1.89-5.39-3.79-11-5.63-16.6s-3.7-11.36-5.46-17-3.3-11-4.64-16c-1.14-4.3-2.15-8.31-3-12,1.24-1.18,3-3,5.49-5.82a94.26,94.26,0,0,0,10.35-13.46l.06-.09c3.06-5.2,9.42-16,9.26-31.89a80.64,80.64,0,0,0-3-22.12,52.41,52.41,0,0,0-9.23-18.08,43.49,43.49,0,0,0-15.46-12.14,49.48,49.48,0,0,0-21.23-4.34h-62.5v15h12.71c.77,0,1.37,1.68,1.59,2.39.61,2,1.34,6.86,1.34,18.72V357.08c0,11.86-.73,16.73-1.34,18.72-.22.72-.82,2.39-1.59,2.39h-13.71v15h59.53v-15h-11.86c-.3,0-1.08,0-1.82-2.39-.61-2-1.33-6.84-1.33-18.72V305.93c1.89.19,3.93.29,6.08.29h0c.17,0,3.76,0,9-.44,1.65,6.52,3.34,13,5,19.2,2.18,8.18,4.5,16.47,6.89,24.64,2.33,8,4.77,15.9,7.23,23.43l.14.43c2.37,7.25,3.79,11.62,4.73,17.3l.48,2.93h39.47v-17.1H1278C1275.63,376.61,1273.14,368.62,1272.08,365.21ZM1209.68,250c.15-12.88.36-25.86.63-38.62a33,33,0,0,1,6.66-.69,28.31,28.31,0,0,1,13.49,3,26.66,26.66,0,0,1,9.34,8.23,37,37,0,0,1,5.54,12.68,69.29,69.29,0,0,1,1.86,16.34c0,14-2.41,24.15-7.17,30.16-4.61,5.85-11.71,8.69-21.68,8.69a54.61,54.61,0,0,1-5.5-.27h0c-1-.1-2.17-.24-3.38-.4C1209.47,275.75,1209.54,262.6,1209.68,250Z"/><path d="M1399.08,365.21c-.39-1.25-.76-2.44-1.12-3.44-1.89-5.39-3.79-11-5.63-16.6s-3.7-11.36-5.46-17-3.3-11-4.64-16c-1.14-4.3-2.15-8.31-3-12,1.24-1.18,3-3,5.49-5.82a94.26,94.26,0,0,0,10.35-13.46l.06-.09c3.06-5.2,9.42-16,9.26-31.89a80.64,80.64,0,0,0-3-22.12,52.41,52.41,0,0,0-9.23-18.08,43.49,43.49,0,0,0-15.46-12.14,49.48,49.48,0,0,0-21.23-4.34h-62.5v15h12.71c.77,0,1.37,1.68,1.59,2.39.61,2,1.34,6.86,1.34,18.72V357.08c0,11.86-.73,16.73-1.34,18.72-.22.72-.82,2.39-1.59,2.39h-13.71v15h59.53v-15h-11.86c-.3,0-1.08,0-1.82-2.39-.61-2-1.33-6.84-1.33-18.72V305.93c1.89.19,3.93.29,6.08.29h0c.18,0,3.76,0,9-.44,1.65,6.52,3.34,13,5,19.2,2.18,8.18,4.5,16.47,6.89,24.64,2.33,8,4.77,15.9,7.23,23.43l.14.43c2.37,7.25,3.79,11.62,4.73,17.3l.48,2.93h39.47v-17.1H1405C1402.63,376.61,1400.14,368.62,1399.08,365.21ZM1336.68,250c.15-12.88.36-25.86.63-38.62a33,33,0,0,1,6.66-.69,28.31,28.31,0,0,1,13.49,3,26.66,26.66,0,0,1,9.34,8.23,37,37,0,0,1,5.54,12.68,69.29,69.29,0,0,1,1.86,16.34c0,14-2.41,24.15-7.17,30.16-4.61,5.85-11.71,8.69-21.68,8.69a54.61,54.61,0,0,1-5.5-.27h0c-1-.1-2.17-.24-3.38-.4C1336.47,275.75,1336.54,262.6,1336.68,250Z"/><path d="M1580.18,204.85h6.46c5.45,0,8.95,1.5,10.69,4.57,1.4,2.48,3.07,8,3.07,20v92.87c-1.91-4.44-4.06-9-6.43-13.51l-62.47-118.1h-41.28v14.14h6.45a10.19,10.19,0,0,1,3.51.68,7.29,7.29,0,0,1,3,2.4,16.81,16.81,0,0,1,2.64,6,46.17,46.17,0,0,1,1.14,11.44V357.85c0,8.85-.77,10.44-2.29,13.61-1.23,2.54-2.86,3.67-5.31,3.67h-6.21v18.55H1549V375.13h-7.44c-5,0-11.44-.74-13.8-4.37-2.24-3.43-3.17-4.85-3.17-12.62V258.22l73.67,135.64,20-.21V230.32a61.1,61.1,0,0,1,1.27-13.69,31.68,31.68,0,0,1,2.78-7.93,8,8,0,0,1,2.6-3.1,6.32,6.32,0,0,1,1.55-.75h6.09V190.71h-52.34Z"/><path d="M1136.66,215c-4.62-8.53-10-15-15.85-19.23a37,37,0,0,0-20.21-6.39c-7.09,0-17.9,2.32-25,8.86-6.36,5.85-11.77,13.72-16.09,23.4a146.66,146.66,0,0,0-9.92,33.27,215,215,0,0,0-3.42,38.57c0,16.62,1.39,31.39,4.14,43.89s6.46,23.1,11,31.42,10,14.73,16.12,18.95c6.38,4.39,16,6.39,22.29,6.39,6.76,0,13.25-2.35,19.29-7,8.34-6.4,14.21-13,17.93-20.09,4.55-8.71,8.22-19.61,10.91-32.42s4.06-27.61,4.06-44c0-16.6-1.4-31.37-4.15-43.89S1141.27,223.48,1136.66,215Zm-18,46.15c1,10.87,1.48,23.28,1.48,36.9a401.36,401.36,0,0,1-1.67,40.14c-1.11,10.67-2.65,19.34-4.56,25.78s-4.13,11-6.62,13.65-5.06,3.94-7.77,3.94c-3,0-6-1.86-8.66-5.53s-5.2-9.39-7.28-16.79a175.2,175.2,0,0,1-5-27.54,348.45,348.45,0,0,1-1.8-37.44c0-12.38.43-23.89,1.29-34.2a185.56,185.56,0,0,1,3.92-26.73c1.74-7.4,4-13.24,6.71-17.33s5.85-6.06,9.48-6.06c3.46,0,6.56,2,9.22,5.93s5,9.87,6.9,17.46A190.11,190.11,0,0,1,1118.63,261.11Z"/><path d="M1746.75,246.67c-2.75-12.52-6.48-23.19-11.09-31.71s-10-15-15.85-19.23a37,37,0,0,0-20.21-6.39c-7.09,0-17.9,2.32-25,8.86-6.36,5.85-11.77,13.72-16.09,23.4a146.66,146.66,0,0,0-9.92,33.27,215,215,0,0,0-3.42,38.57c0,16.62,1.39,31.39,4.14,43.89s6.46,23.1,11,31.42,10,14.73,16.12,18.95c6.38,4.39,16,6.39,22.29,6.39,6.76,0,13.25-2.35,19.29-7,8.34-6.4,14.21-13,17.93-20.09,4.55-8.71,8.22-19.61,10.91-32.42s4.06-27.61,4.06-44C1750.9,274,1749.5,259.19,1746.75,246.67Zm-29.12,14.44c1,10.87,1.48,23.28,1.48,36.9a401.36,401.36,0,0,1-1.67,40.14c-1.11,10.67-2.65,19.34-4.56,25.78s-4.13,11-6.62,13.65-5.06,3.94-7.77,3.94c-3,0-6-1.86-8.66-5.53s-5.2-9.39-7.28-16.79a175.2,175.2,0,0,1-5-27.54,348.45,348.45,0,0,1-1.8-37.44c0-12.38.43-23.89,1.29-34.2a185.56,185.56,0,0,1,3.92-26.73c1.74-7.4,4-13.24,6.71-17.33s5.85-6.06,9.48-6.06c3.46,0,6.56,2,9.22,5.93s5,9.87,6.9,17.46A190.11,190.11,0,0,1,1717.63,261.11Z"/><path d="M1427.06,204.83h6.69c.71,0,2.19,0,3.31,3,.75,2,1.65,7,1.65,19V357.28c0,9-.46,10.22-1.47,12.9l-.18.49a4.58,4.58,0,0,1-4.31,3h-6.69v19.69H1482V373.65h-7.27c-.71,0-2.19,0-3.3-3l-.18-.48c-1-2.68-1.48-3.9-1.48-12.91V341.91c0-5.76,0-12.24.14-19.25.1-7.28.15-14.86.15-22.52,0-7.91.09-15.84.28-23.56.19-7.94.28-15.23.28-21.68,0-7,.05-12.69.15-17.48.09-5.07.14-8.55.14-10.59.22-12.13,1-17.16,1.59-19.24.79-2.76,2-2.76,2.8-2.76h7.26V190.71h-55.46Z"/><path d="M459.94,363H466c4.78,0,7.83,1.29,9.33,3.95,1.24,2.19,2.71,7.05,2.71,17.82v81.85c-1.56-3.56-3.3-7.17-5.18-10.79L416.76,349.71H379.22V363h6.09a8.69,8.69,0,0,1,3.05.6,6.19,6.19,0,0,1,2.57,2.05,14.71,14.71,0,0,1,2.32,5.29,41.26,41.26,0,0,1,1,10.18V500c0,7.87-.68,9.28-2,12.08-1.05,2.19-2.39,3.12-4.48,3.12h-5.88v17.26h50.68V515.19h-7c-6.32,0-10.5-1.29-12.13-3.78-2-3.11-2.79-4.27-2.79-11.16V411.81l65.61,120.8,18.44-.19V385.56a54.42,54.42,0,0,1,1.13-12.21,28.55,28.55,0,0,1,2.46-7,6,6,0,0,1,3.5-3.3h5.73v-13.3H459.94Z"/><path d="M589.94,363H596c4.78,0,7.83,1.29,9.33,3.95,1.24,2.19,2.71,7.05,2.71,17.82v81.85c-1.56-3.56-3.3-7.17-5.18-10.79L546.76,349.71H509.22V363h6.09a8.69,8.69,0,0,1,3.05.6,6.19,6.19,0,0,1,2.57,2.05,14.71,14.71,0,0,1,2.32,5.29,41.26,41.26,0,0,1,1,10.18V500c0,7.87-.68,9.28-2,12.08-1.05,2.19-2.39,3.12-4.48,3.12h-5.88v17.26h50.68V515.19h-7c-6.32,0-10.5-1.29-12.13-3.78-2-3.11-2.79-4.27-2.79-11.16V411.81l65.61,120.8,18.44-.19V385.56a54.42,54.42,0,0,1,1.13-12.21,28.55,28.55,0,0,1,2.46-7,6,6,0,0,1,3.5-3.3h5.73v-13.3H589.94Z"/></g></g></svg>